<?xml version="1.0" standalone="no"?>
<!DOCTYPE svg PUBLIC "-//W3C//DTD SVG 20010904//EN"
 "http://www.w3.org/TR/2001/REC-SVG-20010904/DTD/svg10.dtd">
<svg version="1.0" xmlns="http://www.w3.org/2000/svg"
 width="900.000000pt" height="800.000000pt" viewBox="0 0 1280.000000 800.000000"
 preserveAspectRatio="xMidYMid meet" xmlns:xlink="http://www.w3.org/1999/xlink">
<polygon points="340,-120 960,-120 1240,400 960,920 340,920 40,400" fill="#e1e9f1"/>
<g transform="translate(-325.000000,1020.000000) scale(0.1550000,-0.1550000)"
fill="#000000" stroke="none">
<path fill="#017ba8" d="M4259 7590 c-47 -14 -77 -40 -118 -104 -23 -34 -41 -66 -41 -70 0 -4
-18 -34 -40 -66 -22 -33 -44 -69 -49 -82 -6 -13 -24 -43 -40 -68 -17 -25 -31
-51 -31 -58 0 -7 -18 -40 -40 -72 -22 -33 -43 -68 -47 -77 -4 -10 -24 -44 -45
-75 -21 -31 -42 -67 -47 -80 -6 -13 -24 -43 -40 -68 -17 -25 -31 -49 -31 -53
0 -4 -18 -35 -40 -67 -22 -33 -43 -68 -47 -77 -3 -10 -19 -37 -35 -61 -16 -23
-38 -62 -48 -85 -11 -23 -33 -62 -50 -87 -16 -25 -30 -49 -30 -53 0 -4 -18
-35 -40 -67 -22 -33 -43 -68 -47 -77 -4 -10 -24 -44 -45 -75 -21 -32 -41 -66
-45 -75 -3 -10 -19 -37 -35 -60 -15 -23 -32 -50 -36 -60 -4 -10 -26 -50 -49
-90 -24 -39 -43 -74 -43 -78 0 -3 -18 -33 -40 -65 -22 -33 -44 -69 -49 -82 -6
-13 -24 -43 -40 -68 -17 -25 -31 -49 -31 -53 0 -4 -18 -35 -40 -67 -22 -33
-43 -68 -47 -77 -4 -10 -23 -43 -43 -73 -20 -30 -46 -73 -57 -95 -46 -89 -86
-160 -118 -208 -19 -29 -35 -55 -35 -60 0 -4 -18 -35 -40 -67 -22 -33 -44 -69
-49 -82 -6 -13 -24 -43 -40 -68 -17 -25 -31 -49 -31 -53 0 -4 -18 -35 -40 -67
-22 -33 -43 -68 -47 -77 -4 -10 -26 -50 -50 -90 -24 -39 -43 -74 -43 -77 0 -4
-16 -30 -34 -59 -44 -65 -61 -132 -48 -180 5 -19 28 -62 51 -95 23 -34 41 -65
41 -69 0 -5 16 -32 35 -60 19 -29 35 -56 35 -60 0 -5 16 -32 36 -62 20 -29 43
-69 51 -89 8 -20 28 -55 44 -79 16 -23 29 -45 29 -50 0 -4 14 -28 31 -53 16
-25 34 -55 40 -68 5 -13 27 -49 49 -82 22 -32 40 -63 40 -67 0 -5 11 -25 25
-45 22 -33 45 -74 113 -203 8 -16 33 -56 54 -87 21 -31 38 -61 38 -65 0 -5 16
-32 35 -60 19 -29 35 -56 35 -60 0 -5 11 -24 24 -44 14 -20 41 -67 62 -105 20
-38 45 -81 55 -96 11 -14 19 -30 19 -35 0 -4 16 -32 35 -60 19 -29 35 -56 35
-60 0 -5 16 -32 35 -60 19 -29 35 -56 35 -60 0 -5 16 -32 35 -61 37 -55 67
-106 119 -207 18 -33 46 -81 64 -107 18 -26 32 -50 32 -55 0 -5 16 -32 35 -60
19 -29 35 -56 35 -60 0 -4 14 -28 31 -53 16 -25 34 -55 40 -68 5 -13 27 -49
49 -82 22 -32 40 -65 40 -72 0 -7 16 -37 35 -65 19 -29 35 -56 35 -60 0 -4 14
-28 31 -53 16 -25 34 -55 40 -68 5 -13 27 -49 49 -82 22 -32 40 -63 40 -67 0
-5 11 -24 24 -44 23 -34 70 -117 125 -224 14 -27 41 -64 59 -82 67 -67 -69
-63 2072 -61 l1935 3 48 24 c37 18 59 39 98 97 27 41 53 82 56 92 4 9 24 43
45 74 21 31 42 67 47 80 6 13 24 43 40 68 17 25 31 49 31 53 0 4 20 38 45 75
25 37 45 73 45 80 0 7 16 36 35 65 19 28 35 55 35 60 0 4 18 35 40 67 22 33
44 69 49 82 6 13 24 43 40 68 17 25 31 49 31 53 0 4 18 35 40 67 22 33 44 68
48 77 4 10 26 50 49 90 24 39 43 74 43 78 0 3 16 29 35 58 19 28 35 55 35 60
0 4 18 35 40 67 22 33 44 69 49 82 6 13 24 43 40 68 17 25 31 49 31 53 0 5 14
29 32 55 18 26 46 74 64 107 52 101 82 152 119 207 19 29 35 56 35 61 0 4 16
31 35 60 19 28 35 55 35 60 0 4 17 34 38 65 21 31 46 71 54 87 69 131 92 171
123 217 19 29 35 56 35 61 0 4 16 31 35 60 19 28 35 55 35 60 0 4 18 35 40 67
22 33 44 69 49 82 6 13 24 43 40 68 17 25 31 48 31 53 0 4 20 41 45 81 25 41
45 77 45 81 0 3 16 29 35 58 19 28 35 55 35 60 0 4 12 26 27 48 21 32 27 54
27 94 0 40 -6 62 -27 94 -15 22 -27 44 -27 48 0 5 -11 24 -24 44 -24 35 -67
112 -109 194 -11 22 -33 59 -49 82 -15 23 -28 45 -28 50 0 5 -16 32 -35 60
-19 29 -35 56 -35 60 0 5 -11 25 -25 45 -27 40 -60 98 -110 194 -17 34 -41 74
-52 90 -11 16 -23 37 -26 47 -4 9 -25 44 -47 77 -22 32 -40 63 -40 67 0 5 -11
24 -24 44 -24 35 -67 112 -109 194 -11 22 -33 59 -49 82 -15 23 -28 45 -28 50
0 5 -16 32 -35 60 -19 29 -35 56 -35 60 0 5 -11 25 -25 45 -27 40 -60 98 -110
194 -17 34 -41 74 -52 90 -11 16 -23 37 -26 47 -4 9 -25 44 -47 77 -22 32 -40
63 -40 67 0 5 -11 24 -24 44 -24 35 -67 112 -109 194 -11 22 -33 59 -49 82
-15 23 -28 45 -28 50 0 5 -16 32 -35 60 -19 29 -35 56 -35 60 0 5 -11 25 -25
45 -27 40 -60 98 -109 193 -18 33 -46 81 -64 107 -18 26 -32 50 -32 55 0 5
-16 32 -35 60 -19 29 -35 56 -35 60 0 5 -11 24 -24 44 -14 20 -41 67 -62 105
-56 105 -91 152 -136 182 l-42 27 -1975 2 c-1087 1 -1988 -2 -2002 -7z m2341
-527 l0 -186 142 6 c78 4 465 4 859 0 l718 -6 30 -61 c41 -82 85 -159 110
-195 12 -16 21 -33 21 -38 0 -4 16 -32 35 -60 19 -29 35 -56 35 -60 0 -5 11
-24 24 -44 24 -35 67 -112 109 -194 11 -22 33 -58 47 -80 15 -22 30 -48 33
-58 4 -9 25 -44 47 -77 22 -32 40 -63 40 -67 0 -5 11 -25 25 -45 22 -33 47
-78 113 -203 8 -16 28 -49 44 -72 15 -23 28 -45 28 -50 0 -5 16 -32 35 -60 19
-29 35 -56 35 -60 0 -5 11 -24 24 -44 24 -35 67 -112 109 -194 11 -22 33 -59
49 -82 15 -23 28 -45 28 -50 0 -5 16 -32 35 -61 34 -50 68 -108 106 -182 16
-31 34 -130 68 -385 6 -38 17 -140 26 -225 9 -85 20 -185 25 -222 6 -37 10
-88 10 -115 0 -26 3 -71 6 -100 l7 -52 53 -7 53 -6 -28 -52 -28 -51 -89 -6
c-49 -4 -163 -12 -254 -18 -91 -6 -230 -16 -310 -21 -916 -62 -2586 -87 -4075
-60 -623 12 -1264 40 -1540 70 -49 5 -146 14 -215 20 -202 17 -381 42 -394 56
-16 15 -30 94 -19 105 4 4 40 4 78 -2 182 -24 232 -30 405 -44 102 -9 191 -17
198 -20 8 -3 12 8 13 33 1 20 3 46 4 57 1 11 5 94 9 185 4 91 11 197 16 235 5
39 14 108 20 155 6 47 32 175 57 285 25 110 49 218 54 240 25 108 24 112 -12
123 -19 6 -81 13 -139 16 -58 4 -143 11 -190 17 -47 6 -104 13 -127 15 l-43 5
25 37 c14 20 25 40 25 45 0 4 18 35 40 67 22 33 44 69 49 82 6 13 24 43 40 68
17 25 31 49 31 53 0 4 18 35 40 67 22 33 43 68 47 77 4 10 26 50 50 90 24 39
43 74 43 78 0 3 16 29 35 58 19 28 35 55 35 60 0 4 18 35 40 67 22 33 43 68
47 77 4 10 24 44 45 75 21 32 41 66 45 75 3 10 19 36 34 58 15 22 34 57 42 77
8 20 31 60 51 89 20 30 36 57 36 62 0 4 18 35 40 67 22 33 44 69 49 82 6 13
24 43 40 68 17 25 31 49 31 53 0 4 18 35 40 67 22 33 44 70 50 84 l9 25 833 1
c458 0 969 3 1136 7 l302 6 0 179 0 178 75 0 75 0 0 -187z m-3350 -3843 c252
-34 508 -56 810 -70 776 -37 645 -34 2445 -45 1220 -8 2024 0 2645 24 124 5
227 8 228 6 5 -4 -24 -64 -41 -87 -11 -14 -47 -18 -222 -27 -428 -21 -568 -26
-1265 -40 -394 -9 -2225 -6 -2645 4 -837 19 -1610 56 -1977 96 l-108 12 -29
46 c-16 25 -36 62 -44 82 l-15 36 72 -14 c39 -7 105 -18 146 -23z m72 -250
c93 -12 308 -28 558 -40 107 -5 221 -12 253 -16 l57 -6 0 -748 0 -749 33 -25
c54 -41 556 -356 567 -356 12 0 14 256 2 264 -5 3 -35 10 -68 15 -32 6 -86 15
-119 21 -33 6 -103 17 -155 25 -148 22 -174 27 -182 39 -9 13 -11 1477 -2
1500 7 18 86 20 259 7 l90 -6 5 -228 c5 -214 6 -230 25 -243 28 -21 33 -21
310 -34 974 -42 2079 -42 3034 2 250 11 265 13 290 34 l26 22 3 215 c3 175 6
216 18 221 20 8 241 9 253 1 8 -4 11 -177 11 -555 l0 -550 -31 -56 c-17 -32
-42 -73 -55 -93 -13 -20 -24 -39 -24 -44 0 -4 -18 -35 -40 -67 -22 -33 -44
-68 -48 -78 -4 -10 -20 -39 -37 -65 -22 -34 -37 -47 -53 -47 -13 0 -42 -4 -65
-9 -23 -6 -54 -12 -69 -16 l-28 -5 0 -135 c0 -84 4 -135 10 -135 6 0 -7 -25
-27 -57 l-38 -56 -3 193 -2 193 -46 -7 c-234 -32 -1900 -43 -2659 -17 -225 7
-435 14 -465 15 l-55 1 1 -65 c0 -36 2 -117 4 -180 3 -96 1 -115 -11 -118 -18
-3 -232 113 -369 201 -114 73 -345 244 -389 287 -17 18 -31 39 -31 48 0 10
-20 47 -45 84 -25 37 -45 71 -45 75 0 5 -16 32 -35 60 -19 29 -35 56 -35 60 0
5 -16 32 -35 60 -19 29 -35 56 -35 60 0 5 -16 32 -35 61 -31 46 -54 86 -123
217 -8 17 -33 56 -54 87 -21 31 -38 61 -38 65 0 5 -16 32 -35 60 -19 29 -35
56 -35 60 0 5 -16 32 -35 60 -19 29 -35 55 -35 58 0 4 -20 40 -45 81 -25 40
-45 77 -45 81 0 5 -16 32 -35 60 -19 29 -35 56 -35 60 0 5 -15 31 -33 58 -18
28 -38 62 -45 78 -11 26 -10 27 17 27 16 0 63 -4 103 -10z m5914 -87 c-14 -20
-26 -41 -26 -46 0 -4 -17 -34 -38 -65 -21 -31 -46 -70 -54 -87 -69 -131 -92
-171 -123 -217 -19 -29 -35 -56 -35 -61 0 -4 -16 -31 -35 -60 -19 -28 -35 -55
-35 -60 0 -4 -18 -35 -40 -67 -22 -33 -43 -68 -47 -77 -3 -10 -18 -36 -33 -58
-15 -22 -40 -66 -55 -97 -16 -32 -30 -56 -32 -55 -3 3 -18 751 -18 887 l0 75
175 8 c96 4 229 11 295 15 66 4 122 7 123 5 2 -1 -8 -19 -22 -40z"/>
<path fill="#017ba8" d="M5912 6457 c-48 -15 -61 -42 -88 -175 -13 -64 -31 -151 -40 -192 -19
-91 -29 -137 -43 -210 -5 -30 -22 -109 -36 -175 -14 -66 -30 -140 -35 -165 -5
-25 -16 -76 -25 -115 -9 -38 -20 -92 -25 -120 -5 -27 -17 -79 -25 -115 -8 -36
-20 -85 -25 -110 -5 -25 -17 -74 -26 -110 -27 -114 -27 -113 -2 -136 20 -18
44 -23 167 -33 160 -14 171 -16 171 -40 0 -38 49 -89 102 -108 50 -17 100 -18
788 -18 l735 0 14 110 c11 85 14 289 15 915 l1 805 -795 2 c-542 1 -806 -2
-828 -10z m798 -103 c311 -79 520 -319 520 -596 0 -167 -50 -281 -183 -417
-143 -147 -406 -231 -624 -201 -322 46 -547 235 -609 515 -18 79 -17 130 2
211 61 266 297 466 594 504 81 10 227 2 300 -16z m668 -1470 c34 -23 31 -95
-4 -123 -26 -21 -34 -21 -669 -21 -635 0 -643 0 -669 21 -34 27 -36 82 -4 116
l21 23 652 0 c573 0 653 -2 673 -16z"/>
<path fill="#017ba8" d="M6430 6280 c-239 -29 -442 -188 -506 -399 -18 -59 -18 -193 0 -252
53 -174 186 -302 391 -375 73 -27 316 -26 400 0 236 74 390 245 411 459 23
236 -138 455 -398 541 -42 14 -197 38 -223 35 -5 -1 -39 -5 -75 -9z m54 -461
c25 -11 61 -37 81 -56 96 -93 92 -243 -10 -331 -63 -56 -92 -66 -190 -67 -87
0 -92 1 -147 37 -70 46 -108 102 -115 172 -11 105 34 187 131 236 76 38 180
42 250 9z"/>
<path fill="#017ba8" d="M7632 5753 l3 -718 130 0 129 0 -2 100 c-1 55 -7 195 -13 310 -6 116
-16 372 -23 570 -10 257 -18 368 -27 386 -24 47 -68 69 -137 69 l-62 0 2 -717z"/>
<path fill="#017ba8" d="M3907 5006 c-21 -8 -40 -16 -41 -18 -30 -41 -46 -70 -56 -103 -24
-84 -39 -152 -45 -215 -3 -36 -10 -94 -15 -130 -26 -191 -55 -792 -39 -822 8
-16 23 -18 118 -18 136 0 136 0 145 135 16 252 75 711 122 963 14 74 23 144
20 157 -3 12 -17 30 -31 39 -35 23 -131 30 -178 12z"/>
<path fill="#017ba8" d="M4314 4965 c-17 -27 -31 -72 -44 -150 -17 -100 -42 -586 -44 -852 -1
-260 0 -273 19 -292 19 -19 39 -21 400 -27 359 -7 381 -6 395 11 12 15 15 61
16 269 1 306 21 650 54 929 12 97 2 122 -49 131 -20 3 -192 6 -383 6 l-348 0
-16 -25z m665 -50 c5 -6 6 -34 1 -70 -5 -33 -14 -118 -20 -190 -6 -71 -14
-164 -18 -205 l-7 -75 -315 0 -315 0 3 155 c5 222 31 380 64 393 24 10 597 3
607 -8z m-51 -628 c8 -9 8 -60 1 -172 -5 -88 -10 -200 -12 -250 l-2 -90 -170
-3 c-93 -2 -238 0 -322 3 l-151 7 -7 93 c-10 133 11 396 32 413 25 18 616 17
631 -1z"/>
<path fill="#017ba8" d="M8770 4971 c-40 -5 -45 -9 -44 -31 2 -43 23 -291 34 -385 5 -49 14
-146 20 -215 6 -69 20 -217 31 -330 11 -113 23 -235 26 -272 3 -37 11 -69 17
-71 27 -9 514 13 561 26 50 13 50 14 53 58 9 115 -26 614 -59 844 -16 109 -60
317 -75 353 l-13 32 -253 -2 c-139 0 -273 -4 -298 -7z"/>
<path fill="#017ba8" d="M8125 4923 c-194 -25 -364 -173 -422 -367 -19 -62 -21 -226 -4 -281
65 -209 214 -339 429 -374 204 -33 422 89 516 289 37 80 40 92 44 197 3 87 1
125 -12 165 -63 200 -218 338 -413 367 -72 11 -82 11 -138 4z m71 -164 c17
-16 27 -18 41 -11 25 14 61 -2 73 -33 8 -20 16 -25 44 -25 42 0 66 -22 66 -61
0 -22 6 -32 24 -39 36 -13 60 -54 47 -78 -8 -15 -5 -24 14 -42 29 -27 32 -65
8 -92 -15 -17 -15 -19 0 -36 25 -28 21 -67 -9 -91 -21 -17 -23 -22 -13 -39 10
-16 10 -25 -4 -46 -16 -24 -33 -31 -64 -27 -8 1 -13 -10 -13 -27 0 -40 -31
-66 -70 -59 -23 5 -32 2 -40 -14 -15 -27 -50 -39 -78 -26 -16 8 -26 7 -34 -1
-17 -17 -63 -15 -78 3 -11 14 -15 14 -38 -1 -31 -20 -68 -6 -82 32 -8 19 -15
24 -29 19 -45 -14 -91 20 -83 63 2 6 -6 12 -17 12 -31 0 -53 29 -49 65 3 27
-1 34 -24 44 -38 17 -45 47 -18 83 l22 30 -21 19 c-28 27 -27 65 3 84 21 14
24 22 19 51 -6 39 17 74 49 74 13 0 18 7 18 25 0 36 34 67 65 59 22 -5 27 -2
36 24 6 17 21 38 35 47 22 14 27 14 54 0 29 -15 31 -14 52 10 26 31 64 32 94
4z"/>
<path fill="#017ba8" d="M8069 4621 c-108 -35 -189 -142 -189 -250 0 -128 109 -246 241 -259
101 -10 210 55 255 153 57 121 2 279 -117 339 -39 20 -151 30 -190 17z"/>
<path fill="#017ba8" d="M5415 4603 c-29 -8 -56 -34 -70 -68 -10 -22 -14 -135 -16 -423 l-4
-393 25 -19 c31 -24 113 -35 196 -26 77 8 108 21 122 50 6 12 13 128 16 266 3
135 9 320 12 411 l7 167 -28 18 c-21 14 -51 18 -133 20 -59 2 -116 0 -127 -3z"/>
<path fill="#017ba8" d="M6065 4528 c-3 -7 -4 -209 -3 -448 l3 -435 723 -3 722 -2 0 450 0
450 -720 0 c-567 0 -722 -3 -725 -12z m1118 -66 c85 -39 147 -98 187 -175 28
-54 32 -72 33 -142 0 -65 -5 -91 -26 -138 -102 -225 -409 -298 -620 -147 -62
45 -104 100 -132 172 -24 66 -18 185 15 253 33 67 112 143 185 176 79 35 94
38 201 35 78 -3 102 -8 157 -34z"/>
</g>
<defs>
  <path id="textrect" d="m405,800 a5090,5090 0 0 0 550,0"/>
</defs>
<text font-family="Arial Black" font-size="190" fill="#017ba8">
  <textPath xlink:href="#textrect">
  R2D3
  </textPath>
</text>
</svg>
